<?xml version="1.0" encoding="UTF-8"?>
<svg version="1.1" xmlns="http://www.w3.org/2000/svg" width="512" height="512">
<path d="M0 0 C0.98120874 -0.01026704 1.96241748 -0.02053409 2.97335982 -0.03111225 C3.84938928 -0.02845339 4.72541873 -0.02579452 5.62799454 -0.02305508 C6.37818934 -0.0225287 7.12838414 -0.02200232 7.90131211 -0.02146 C9.72113037 0.23301697 9.72113037 0.23301697 11.72113037 2.23301697 C11.91968562 4.9630682 11.99384817 7.59168429 11.97991943 10.32286072 C11.98517639 11.57669052 11.98517639 11.57669052 11.99053955 12.85585022 C11.99936451 15.62748951 11.99350505 18.39887494 11.98675537 21.17051697 C11.9881018 23.091009 11.99004215 25.01150071 11.99255371 26.93199158 C11.99550601 30.96042622 11.99120393 34.98877229 11.98187256 39.01719666 C11.97047797 44.1893214 11.97703688 49.36123859 11.98901749 54.53335571 C11.99623323 58.50008212 11.99394947 62.46675906 11.9887619 66.43348694 C11.98742461 68.34093754 11.98907587 70.24839259 11.99372101 72.15583801 C11.99878157 74.81840469 11.99108273 77.48063192 11.97991943 80.14317322 C11.9839679 80.93700409 11.98801636 81.73083496 11.9921875 82.54872131 C11.94965865 88.00448868 11.94965865 88.00448868 9.72113037 90.23301697 C7.66632795 90.47609186 7.66632795 90.47609186 5.10741425 90.46382904 C4.15338227 90.46270284 3.19935029 90.46157664 2.21640825 90.46041632 C1.17958642 90.44745095 0.1427646 90.43448558 -0.92547607 90.42112732 C-2.00346608 90.4136946 -3.08145608 90.40626187 -4.19211245 90.39860392 C-15.45267189 90.28554962 -26.68787956 89.78925315 -37.9331665 89.22325134 C-40.18295938 89.11438093 -42.43277715 89.00602384 -44.68261719 88.89813232 C-50.70605779 88.60785574 -56.72913089 88.31053015 -62.75215721 88.01179695 C-69.07795513 87.69929554 -75.40407614 87.39347327 -81.73016357 87.0868988 C-92.32080265 86.57277358 -102.91123914 86.05463221 -113.50152588 85.53330994 C-124.39592383 84.99702865 -135.29043947 84.46324268 -146.18511963 83.932724 C-146.85984926 83.89986705 -147.53457888 83.8670101 -148.22975487 83.83315748 C-151.61562594 83.66829265 -155.00149935 83.50347594 -158.38737392 83.33868313 C-186.35157244 81.97758455 -214.31535169 80.60802168 -242.27886963 79.23301697 C-241.36104125 80.65835044 -240.43653502 82.07938483 -239.50933838 83.49864197 C-238.73819702 84.68635193 -238.73819702 84.68635193 -237.95147705 85.89805603 C-231.05968424 95.51900281 -220.29645789 99.97133722 -209.07965088 102.61582947 C-202.79788843 103.63588956 -196.45971137 104.08254195 -190.11187744 104.49937439 C-189.1447583 104.567453 -188.17763916 104.63553162 -187.18121338 104.70567322 C-186.30972656 104.75989441 -185.43823975 104.8141156 -184.54034424 104.86997986 C-182.27886963 105.23301697 -182.27886963 105.23301697 -179.27886963 107.23301697 C-178.98719451 110.04686903 -178.88289055 112.63728641 -178.91558838 115.45176697 C-178.91508987 116.26544739 -178.91459137 117.07912781 -178.91407776 117.91746521 C-178.91641989 119.63904765 -178.92615666 121.3606334 -178.94268799 123.08213806 C-178.96627644 125.72258509 -178.96325086 128.36202266 -178.956604 131.00254822 C-178.96218074 132.67312718 -178.9692906 134.34370187 -178.97808838 136.01426697 C-178.97717697 136.80700012 -178.97626556 137.59973328 -178.97532654 138.41648865 C-179.04784616 144.0019935 -179.04784616 144.0019935 -181.27886963 146.23301697 C-183.95079089 146.46734264 -186.48046357 146.564963 -189.15386963 146.54551697 C-189.95034912 146.54060242 -190.74682861 146.53568787 -191.56744385 146.53062439 C-217.27367931 146.04272134 -243.10113359 138.96693 -262.27886963 121.23301697 C-262.99429932 120.59750916 -263.709729 119.96200134 -264.44683838 119.30723572 C-270.12315546 114.00421609 -274.1777037 107.77743068 -278.27886963 101.23301697 C-279.80306244 130.13622879 -271.35092744 158.96341954 -262.98498535 186.31138611 C-259.13886817 198.89632438 -255.96978262 211.41534786 -253.67681885 224.38999939 C-253.34074894 226.31622735 -253.34074894 226.31622735 -252.27886963 228.23301697 C-251.69306625 227.63388992 -251.10726288 227.03476288 -250.50370789 226.41748047 C-244.97304338 220.76645818 -239.42795135 215.13008184 -233.86628628 209.50956059 C-231.00764696 206.61964496 -228.1548409 203.72443254 -225.3147583 200.81626892 C-222.57228466 198.00847246 -219.81529433 195.21570779 -217.04774666 192.43263054 C-215.99593002 191.36975087 -214.94939753 190.30161438 -213.90838432 189.22815132 C-212.44595384 187.72198634 -210.96561825 186.23583867 -209.47979736 184.75279236 C-208.6426268 183.90229813 -207.80545624 183.05180389 -206.94291687 182.17553711 C-203.67374905 179.79178646 -201.28389259 179.42583911 -197.27886963 179.23301697 C-189.32209929 183.1069193 -184.1167575 195.68582887 -180.91949463 203.59629822 C-175.14081324 220.40891109 -175.31253755 239.20990046 -182.77496338 255.49864197 C-184.19292738 258.14362219 -185.68305044 260.69247281 -187.27886963 263.23301697 C-188.28023597 264.89886307 -189.28061264 266.56530573 -190.27886963 268.23301697 C-189.55183838 268.79955994 -189.55183838 268.79955994 -188.81011963 269.37754822 C-181.30143039 275.54333727 -175.02621631 282.78380944 -172.27886963 292.23301697 C-171.61886963 292.23301697 -170.95886963 292.23301697 -170.27886963 292.23301697 C-169.89215088 290.91237244 -169.89215088 290.91237244 -169.49761963 289.56504822 C-164.78758325 276.68792952 -152.42283511 266.02426074 -140.27886963 260.23301697 C-127.37854135 254.80634721 -115.16139087 252.11612365 -101.15386963 251.98301697 C-100.31098389 251.97351013 -99.46809814 251.9640033 -98.59967041 251.95420837 C-92.52418052 251.98770607 -92.52418052 251.98770607 -90.27886963 254.23301697 C-88.29079311 268.01084959 -93.76068315 281.934892 -101.27886963 293.23301697 C-107.01190691 300.7417936 -113.30790101 306.20583453 -121.27886963 311.23301697 C-120.41084717 311.2528363 -119.54282471 311.27265564 -118.64849854 311.29307556 C-115.43160696 311.37111569 -112.21509918 311.45780578 -108.99859619 311.55039978 C-107.60578391 311.58871023 -106.21287198 311.62355956 -104.81988525 311.65489197 C-102.81900655 311.70049604 -100.81844817 311.7595332 -98.81793213 311.81895447 C-97.61346436 311.85037537 -96.40899658 311.88179626 -95.16802979 311.91416931 C-92.27886963 312.23301697 -92.27886963 312.23301697 -90.27886963 314.23301697 C-89.80865881 317.98007474 -89.94719635 321.77254834 -89.96636963 325.54551697 C-89.97128418 326.67038513 -89.97619873 327.7952533 -89.98126221 328.95420837 C-90.59655123 373.7030743 -108.79140351 416.18914582 -140.53546143 447.58335876 C-143.18243023 450.08798952 -145.96416752 452.37432262 -148.84136963 454.60801697 C-149.44287842 455.07570496 -150.04438721 455.54339294 -150.66412354 456.0252533 C-183.55274543 481.23301697 -183.55274543 481.23301697 -199.27886963 481.23301697 C-199.268396 482.10103943 -199.25792236 482.96906189 -199.24713135 483.86338806 C-199.21307247 487.08001225 -199.18798196 490.29654464 -199.16900635 493.51329041 C-199.15894085 494.90622478 -199.14528729 496.29913799 -199.12799072 497.69200134 C-199.10376743 499.69256056 -199.09346149 501.69327312 -199.08355713 503.69395447 C-199.0730835 504.89842224 -199.06260986 506.10289001 -199.05181885 507.34385681 C-199.27886963 510.23301697 -199.27886963 510.23301697 -201.27886963 512.23301697 C-203.77026226 512.43041178 -206.15057756 512.50233734 -208.64312744 512.48698425 C-209.411133 512.49010423 -210.17913857 512.49322422 -210.97041702 512.49643874 C-213.5576864 512.50445022 -216.14472328 512.49808294 -218.73199463 512.49180603 C-220.5812392 512.4945145 -222.43048269 512.49807461 -224.27972412 512.50242615 C-229.31266406 512.5115696 -234.34552231 512.50799786 -239.37846375 512.50166798 C-244.63595811 512.49661808 -249.89344531 512.50129661 -255.15093994 512.50444031 C-263.98135641 512.50808291 -272.81173947 512.50327315 -281.64215088 512.49375916 C-291.863442 512.48287405 -302.08465335 512.48639942 -312.30594254 512.49741197 C-321.06858124 512.50647648 -329.83119587 512.50777422 -338.59383774 512.50253463 C-343.83314065 512.49941032 -349.07240602 512.49901819 -354.31170654 512.5056076 C-359.23643239 512.51136831 -364.161055 512.50740766 -369.08576965 512.49581909 C-370.89744393 512.49316565 -372.70912684 512.49394918 -374.52079773 512.49834442 C-376.98552131 512.50377447 -379.44990983 512.49699697 -381.91461182 512.48698425 C-382.63892017 512.4914457 -383.36322853 512.49590714 -384.10948563 512.50050378 C-389.05056946 512.46131714 -389.05056946 512.46131714 -391.27886963 510.23301697 C-391.50592041 507.34385681 -391.50592041 507.34385681 -391.47418213 503.69395447 C-391.46773682 502.39200134 -391.4612915 501.09004822 -391.45465088 499.74864197 C-391.43793892 498.36843101 -391.42100902 496.98822268 -391.40386963 495.60801697 C-391.39383969 494.22000245 -391.38471386 492.83198108 -391.37652588 491.44395447 C-391.35288826 488.04013671 -391.3199383 484.63666191 -391.27886963 481.23301697 C-392.18862549 481.0981488 -393.09838135 480.96328064 -394.03570557 480.82432556 C-398.1971623 480.06558962 -401.68620637 478.57989588 -405.52886963 476.85801697 C-406.6988147 476.33389221 -406.6988147 476.33389221 -407.89239502 475.79917908 C-421.13156146 469.68950866 -433.39821524 461.95439311 -444.27886963 452.23301697 C-445.71939697 450.98971619 -445.71939697 450.98971619 -447.18902588 449.72129822 C-478.96593156 421.90363435 -496.63593653 380.93976469 -500.27886963 339.23301697 C-500.59135322 334.04249543 -500.65058192 328.85316977 -500.6494751 323.65440369 C-500.65385425 321.36605079 -500.69037114 319.07962647 -500.72808838 316.79161072 C-500.92871938 290.57161383 -490.94538816 267.86330889 -472.98980713 248.85801697 C-452.05699862 228.58878452 -426.9632574 221.64844903 -398.36871338 221.95957947 C-382.21606459 222.38974889 -366.96503273 227.63998708 -353.27886963 236.23301697 C-353.5650415 234.95555603 -353.85121338 233.67809509 -354.14605713 232.36192322 C-355.26962284 227.30587753 -356.34202732 222.23983081 -357.40386963 217.17051697 C-357.67650635 215.87210876 -357.67650635 215.87210876 -357.95465088 214.54747009 C-358.39652567 212.4427507 -358.83776537 210.33789798 -359.27886963 208.23301697 C-360.46851318 208.21843445 -361.65815674 208.20385193 -362.8838501 208.18882751 C-367.33840546 208.13043127 -371.79247697 208.05320409 -376.24664307 207.9705658 C-378.16681 207.93750951 -380.0870696 207.90941885 -382.00738525 207.88658142 C-384.78317402 207.85267756 -387.55812815 207.80034788 -390.33355713 207.74473572 C-391.17876923 207.73834579 -392.02398132 207.73195587 -392.89480591 207.72537231 C-402.55663844 207.4921704 -411.27475747 205.16197771 -418.27886963 198.23301697 C-426.91469592 187.6973089 -427.33902507 176.29962714 -426.27886963 163.23301697 C-424.92891624 153.71348264 -421.77661586 144.71483925 -417.27886963 136.23301697 C-416.50736572 134.75381775 -416.50736572 134.75381775 -415.72027588 133.24473572 C-411.74705886 126.02320733 -407.09538294 120.05995414 -401.27886963 114.23301697 C-400.70394775 113.64649353 -400.12902588 113.05997009 -399.53668213 112.45567322 C-389.57618522 103.0908998 -379.05640904 102.55681868 -366.09136963 102.92051697 C-358.26418213 103.07520447 -358.26418213 103.07520447 -350.27886963 103.23301697 C-350.27886963 85.74301697 -350.27886963 68.25301697 -350.27886963 50.23301697 C-356.87886963 50.23301697 -363.47886963 50.23301697 -370.27886963 50.23301697 C-370.27886963 63.10301697 -370.27886963 75.97301697 -370.27886963 89.23301697 C-373.57886963 89.23301697 -376.87886963 89.23301697 -380.27886963 89.23301697 C-380.27886963 83.62301697 -380.27886963 78.01301697 -380.27886963 72.23301697 C-382.53924072 72.15954041 -382.53924072 72.15954041 -384.84527588 72.08457947 C-386.84399081 72.00951036 -388.84268787 71.93396434 -390.84136963 71.85801697 C-391.83201416 71.82707947 -392.82265869 71.79614197 -393.84332275 71.76426697 C-399.28626944 71.54727242 -404.18480566 71.24329188 -409.27886963 69.23301697 C-411.3604706 66.11061551 -411.52833484 65.4421499 -411.50933838 61.90098572 C-411.50821045 61.02990173 -411.50708252 60.15881775 -411.50592041 59.26133728 C-411.49286865 58.32386658 -411.47981689 57.38639587 -411.46636963 56.42051697 C-411.45847412 55.45597595 -411.45057861 54.49143494 -411.44244385 53.49766541 C-411.36005069 46.32365843 -411.17367932 39.15233111 -410.90386963 31.98301697 C-410.87317383 31.03708679 -410.84247803 30.09115662 -410.81085205 29.11656189 C-410.75248169 27.80522278 -410.75248169 27.80522278 -410.69293213 26.46739197 C-410.64580078 25.31061951 -410.64580078 25.31061951 -410.59771729 24.13047791 C-410.27886963 22.23301697 -410.27886963 22.23301697 -408.27886963 20.23301697 C-404.8520417 19.03851527 -401.36523064 18.98974511 -397.76294327 18.8132391 C-397.10705247 18.78000615 -396.45116167 18.74677321 -395.77539539 18.71253321 C-393.5682492 18.60169128 -391.36086687 18.49659196 -389.15344238 18.39144897 C-387.55840582 18.31255408 -385.9633865 18.23331007 -384.36838317 18.15374619 C-379.9773144 17.93574372 -375.58601338 17.72278011 -371.19465828 17.51063454 C-366.4606145 17.28107125 -361.72679815 17.04690434 -356.99295044 16.81333923 C-347.71048374 16.35612331 -338.42780665 15.9033227 -329.145044 15.45215922 C-321.59093326 15.08496111 -314.0368937 14.71633117 -306.48290253 14.34668159 C-305.40798295 14.29408522 -304.33306338 14.24148885 -303.22557048 14.18729864 C-301.04168411 14.08043837 -298.8577978 13.9735769 -296.67391154 13.86671425 C-276.16982312 12.86361324 -255.66548317 11.86573002 -235.1610634 10.86942846 C-216.44374161 9.95980157 -197.72674135 9.04374041 -179.00988558 8.12457871 C-159.7725286 7.17991363 -140.53496282 6.23961216 -121.29716468 5.30397278 C-110.50482547 4.77900745 -99.71257441 4.25236913 -88.92053986 3.72117424 C-79.72011958 3.26836977 -70.519507 2.81973603 -61.31863132 2.37627774 C-56.63306452 2.15033565 -51.94760419 1.92261275 -47.26237869 1.68969154 C-15.03075938 0.0898246 -15.03075938 0.0898246 0 0 Z M-399.27886963 128.23301697 C-410.67172326 144.61157004 -418.23039007 162.63025541 -414.84527588 182.81895447 C-413.22579284 188.06970071 -409.80217906 191.38014131 -405.27886963 194.23301697 C-398.57563823 196.96396309 -391.26640524 197.03625196 -384.27886963 195.23301697 C-385.92886963 192.59301697 -387.57886963 189.95301697 -389.27886963 187.23301697 C-391.25886963 188.22301697 -391.25886963 188.22301697 -393.27886963 189.23301697 C-395.25886963 187.25301697 -397.23886963 185.27301697 -399.27886963 183.23301697 C-398.07413945 180.10071851 -397.01657079 179.03082828 -394.27886963 176.92051697 C-390.00497063 172.85408879 -390.18686879 167.55532466 -389.64605713 161.95957947 C-389.21471529 157.58191872 -388.32638387 153.49789637 -387.27886963 149.23301697 C-392.20485947 153.35476357 -396.78298985 157.64538454 -401.27886963 162.23301697 C-403.58886963 160.25301697 -405.89886963 158.27301697 -408.27886963 156.23301697 C-406.67161229 153.01850229 -405.75738947 151.45446427 -403.3772583 149.02500916 C-402.79292526 148.42468872 -402.20859222 147.82436829 -401.60655212 147.20585632 C-400.97634659 146.57028809 -400.34614105 145.93471985 -399.69683838 145.27989197 C-398.72004875 144.28955963 -398.72004875 144.28955963 -397.723526 143.27922058 C-396.34684644 141.88805529 -394.96735661 140.49966614 -393.58526611 139.11387634 C-391.47216585 136.98884591 -389.37843837 134.84588273 -387.284729 132.70176697 C-385.94408522 131.35166264 -384.6023251 130.00266573 -383.25933838 128.65489197 C-382.63520554 128.01122681 -382.01107269 127.36756165 -381.36802673 126.70439148 C-376.92059643 122.30248281 -376.92059643 122.30248281 -373.45513916 121.92735291 C-372.73697021 122.02822205 -372.01880127 122.12909119 -371.27886963 122.23301697 C-369.40286162 120.74625075 -369.40286162 120.74625075 -367.96636963 118.73301697 C-367.19873291 117.75848572 -367.19873291 117.75848572 -366.41558838 116.76426697 C-366.04047119 116.25895447 -365.665354 115.75364197 -365.27886963 115.23301697 C-378.23068591 108.75710883 -391.45305092 118.59639514 -399.27886963 128.23301697 Z M-338.59136963 198.04551697 C-341.76188667 200.22558386 -344.97281815 202.26463051 -348.27886963 204.23301697 C-348.06738281 205.39534851 -348.06738281 205.39534851 -347.85162354 206.5811615 C-347.19968483 210.17296467 -346.55176346 213.76548206 -345.90386963 217.35801697 C-345.68215088 218.57618103 -345.46043213 219.79434509 -345.23199463 221.04942322 C-345.012854 222.26758728 -344.79371338 223.48575134 -344.56793213 224.74082947 C-344.34508545 225.97365662 -344.12223877 227.20648376 -343.89263916 228.47666931 C-343.27808428 232.23782343 -342.85743287 235.99303355 -342.43511963 239.77989197 C-341.60572955 245.71232335 -340.56371402 248.34125063 -336.15386963 252.35801697 C-335.15751436 253.3171776 -334.16803192 254.28352262 -333.18511963 255.25645447 C-332.69527588 255.73695251 -332.20543213 256.21745056 -331.70074463 256.71250916 C-328.52791324 260.10543393 -326.20300701 264.10887992 -323.73980713 268.02989197 C-323.25769775 268.75692322 -322.77558838 269.48395447 -322.27886963 270.23301697 C-321.94886963 270.23301697 -321.61886963 270.23301697 -321.27886963 270.23301697 C-320.50184721 245.82875727 -322.67093053 217.90693051 -332.27886963 195.23301697 C-335.06973791 195.23301697 -336.30814426 196.46836465 -338.59136963 198.04551697 Z M-469.27886963 261.23301697 C-481.23693745 275.63470945 -489.27886963 293.42423484 -489.27886963 312.23301697 C-483.00886963 312.23301697 -476.73886963 312.23301697 -470.27886963 312.23301697 C-469.88699463 310.00551697 -469.49511963 307.77801697 -469.09136963 305.48301697 C-466.42875857 291.84784778 -460.19730866 281.42036594 -452.27886963 270.23301697 C-451.55957275 269.20434509 -450.84027588 268.17567322 -450.09918213 267.11582947 C-448.20258811 264.45174215 -446.26372923 261.83183737 -444.27886963 259.23301697 C-443.75293213 258.53950134 -443.22699463 257.84598572 -442.68511963 257.13145447 C-434.04533874 246.50113583 -422.57325405 239.79958983 -410.27886963 234.23301697 C-410.27886963 233.90301697 -410.27886963 233.57301697 -410.27886963 233.23301697 C-432.19924783 231.44359834 -455.02737445 245.64937144 -469.27886963 261.23301697 Z M-255.27886963 291.23301697 C-255.27886963 298.16301697 -255.27886963 305.09301697 -255.27886963 312.23301697 C-243.39886963 312.23301697 -231.51886963 312.23301697 -219.27886963 312.23301697 C-222.83066019 309.38330634 -222.83066019 309.38330634 -226.45465088 306.62754822 C-230.66519318 303.51005346 -233.84131859 300.57616526 -236.96636963 296.35801697 C-239.58674373 293.21463541 -240.83286191 292.33089758 -244.89215088 291.44004822 C-248.34678152 291.20048087 -251.81610242 291.19972113 -255.27886963 291.23301697 Z M-489.27886963 322.23301697 C-490.54829622 364.12409454 -475.33331783 403.99629482 -446.87457275 434.56309509 C-431.25252993 450.89974216 -405.14402944 470.57205043 -381.77496338 472.52598572 C-380.76562744 472.49118103 -379.7562915 472.45637634 -378.71636963 472.42051697 C-377.68383057 472.39344666 -376.6512915 472.36637634 -375.58746338 472.33848572 C-374.82562744 472.30368103 -374.0637915 472.26887634 -373.27886963 472.23301697 C-376.24635046 469.77796195 -379.42281084 468.09110755 -382.86187744 466.38023376 C-415.84263697 449.87127538 -439.94810874 421.36686598 -453.27886963 387.23301697 C-453.74808838 386.03934509 -454.21730713 384.84567322 -454.70074463 383.61582947 C-461.87520501 363.73105964 -464.02508781 343.20536747 -465.27886963 322.23301697 C-473.19886963 322.23301697 -481.11886963 322.23301697 -489.27886963 322.23301697 Z M-381.27886963 482.23301697 C-381.27886963 488.83301697 -381.27886963 495.43301697 -381.27886963 502.23301697 C-373.02886963 502.23301697 -364.77886963 502.23301697 -356.27886963 502.23301697 C-356.27886963 495.63301697 -356.27886963 489.03301697 -356.27886963 482.23301697 C-364.52886963 482.23301697 -372.77886963 482.23301697 -381.27886963 482.23301697 Z " fill="#4E241A" transform="translate(500.27886962890625,-0.2330169677734375)"/>
<path d="M0 0 C120.45 0 240.9 0 365 0 C365 7.49737337 364.69161255 14.27128483 363.75 21.625 C363.61505127 22.67896973 363.48010254 23.73293945 363.34106445 24.81884766 C362.17729229 33.45252056 360.48604468 41.64791153 358 50 C357.80599609 50.68658691 357.61199219 51.37317383 357.41210938 52.08056641 C352.48907727 69.34634329 344.42678292 86.08166291 333 100 C332.39768555 100.75603516 332.39768555 100.75603516 331.78320312 101.52734375 C315.02162252 122.54863431 293.581424 138.19574916 268.40234375 147.7109375 C262.28352946 149.67949689 262.28352946 149.67949689 257 153 C256.67 161.91 256.34 170.82 256 180 C207.49 180 158.98 180 109 180 C109 173.4 109 166.8 109 160 C129.13 160 149.26 160 170 160 C170 156.7 170 153.4 170 150 C169.0694429 150.02442673 168.1388858 150.04885345 167.18013 150.07402039 C158.31338067 150.2992002 149.44722729 150.46292742 140.57824421 150.56993389 C136.02073792 150.62680447 131.46557912 150.70362727 126.90942383 150.82983398 C88.23099174 151.87286903 88.23099174 151.87286903 71 139 C69.48895753 137.94836028 67.97529216 136.90047891 66.45898438 135.85644531 C40.90769711 118.11767966 22.29766032 93.92802854 11 65 C10.53078125 63.80632812 10.0615625 62.61265625 9.578125 61.3828125 C2.36863508 41.40095463 0 21.12410513 0 0 Z " fill="#D74760" transform="translate(35,322)"/>
<path d="M0 0 C0 9.9 0 19.8 0 30 C-132.66 30 -265.32 30 -402 30 C-402 26.37 -402 22.74 -402 19 C-400.61301659 18.94148613 -400.61301659 18.94148613 -399.19801331 18.88179016 C-386.98586851 18.36580802 -374.77409149 17.84140855 -362.5625 17.3125 C-361.56043266 17.2691238 -360.55836533 17.2257476 -359.52593231 17.18105698 C-322.81566763 15.58957098 -286.11918973 13.77910919 -249.42661572 11.82288456 C-244.56834215 11.5640435 -239.70998569 11.30679788 -234.8515625 11.05078125 C-233.46234431 10.97753034 -233.46234431 10.97753034 -232.04506111 10.90279961 C-219.64395864 10.25249454 -207.24773599 9.72016673 -194.83551025 9.33293152 C-184.11831301 8.99331024 -173.41922009 8.42289404 -162.71438599 7.81420898 C-140.33671324 6.54629424 -117.954347 5.47495559 -95.5625 4.5 C-71.13344797 3.43621622 -46.71523401 2.24394718 -22.29907227 0.9140625 C-21.16384628 0.85256516 -20.0286203 0.79106781 -18.85899353 0.72770691 C-16.75480434 0.61341898 -14.65068274 0.49787676 -12.54664612 0.3808136 C-11.15578041 0.30506355 -11.15578041 0.30506355 -9.73681641 0.2277832 C-8.93740631 0.18353714 -8.13799622 0.13929108 -7.31436157 0.09370422 C-4.87803709 -0.00493805 -2.43832059 0 0 0 Z " fill="#E26315" transform="translate(502,10)"/>
<path d="M0 0 C83.16 0 166.32 0 252 0 C252 9.9 252 19.8 252 30 C237.92062828 29.39343812 223.84151552 28.78112173 209.76257324 28.16467285 C207.22164435 28.05346651 204.68070996 27.94238562 202.13977051 27.8314209 C163.54456047 26.14568057 124.95810073 24.34451366 86.37827492 22.33229446 C80.89986213 22.04663512 75.42137781 21.76236754 69.94287109 21.47851562 C69.06845493 21.43320992 68.19403877 21.38790422 67.29312515 21.34122562 C65.49856833 21.24824939 63.70401139 21.15527538 61.90945435 21.06230354 C42.27279702 20.04484691 22.63634493 19.02346636 3 18 C1 13 1 13 0 0 Z " fill="#E16315" transform="translate(250,50)"/>
<path d="M0 0 C6.6 0 13.2 0 20 0 C20.01981934 1.61672607 20.03963867 3.23345215 20.06005859 4.89916992 C20.13715178 10.9994044 20.22569258 17.09943182 20.31738281 23.19946289 C20.35525047 25.82051452 20.39016974 28.44161072 20.421875 31.06274414 C20.61450987 46.80161494 21.08371495 62.3680863 23 78 C23.14550293 79.18988525 23.29100586 80.37977051 23.44091797 81.60571289 C25.87542266 99.87586097 30.54352829 117.16964753 36.02197266 134.72680664 C39.61916873 146.25859687 43.0693301 157.73576946 45.46435547 169.58447266 C45.99721827 171.98745559 46.67410268 174.31048797 47.37890625 176.66796875 C48.56177926 181.27609065 49.48698522 185.36952803 48 190 C43.32441564 197.04195258 36.70111686 202.90522176 30 208 C29.67 208 29.34 208 29 208 C28.91024902 207.04561035 28.82049805 206.0912207 28.72802734 205.10791016 C26.33840492 180.11042281 22.80151281 156.27729302 14.50390625 132.453125 C10.06767868 119.56349961 6.89899309 106.29677472 4.25 92.9375 C4.05140381 91.95910156 3.85280762 90.98070312 3.64819336 89.97265625 C-0.10924069 70.14756525 -0.27358459 50.32336871 -0.1373291 30.20788574 C-0.11645796 26.78770511 -0.10764945 23.36749227 -0.09765625 19.94726562 C-0.07588866 13.29808619 -0.04151885 6.64908422 0 0 Z " fill="#FCC85C" transform="translate(190,50)"/>
<path d="M0 0 C5.96370308 3.06175254 11.08335779 6.93987708 16.21484375 11.25 C16.85292969 11.72695312 17.49101562 12.20390625 18.1484375 12.6953125 C32.67638985 23.9016314 43.31411134 44.80768278 45.671875 62.72265625 C45.92076176 65.55996532 46.07774002 68.40509755 46.21484375 71.25 C39.61484375 71.25 33.01484375 71.25 26.21484375 71.25 C25.71984375 68.94 25.22484375 66.63 24.71484375 64.25 C21.45144899 50.5999928 15.41651628 39.00159874 5.21484375 29.25 C4.69921875 28.7034375 4.18359375 28.156875 3.65234375 27.59375 C-8.02605801 16.15864827 -25.45740159 11.72609099 -41.23364258 11.82983398 C-57.71626928 12.3131185 -71.94985466 18.93220893 -83.76171875 30.33203125 C-85.78515625 32.25 -85.78515625 32.25 -88.78515625 34.25 C-82.11818506 15.52860615 -63.98488132 1.78919455 -46.68359375 -6.47265625 C-31.91041589 -12.98320768 -13.75194573 -6.63174022 0 0 Z " fill="#FCC85C" transform="translate(133.78515625,240.75)"/>
<path d="M0 0 C2.57552914 2.57552914 2.76303909 4.45548786 3.625 8 C5.14735782 14.06830836 6.93079384 20.0194763 8.8347168 25.97875977 C12.04994455 36.08925885 14.95419948 46.21630955 17.3125 56.5625 C17.54243652 57.53928711 17.77237305 58.51607422 18.00927734 59.52246094 C22.83310166 81.55302561 23.40722842 103.59630522 23.1875 126.0625 C23.17063929 128.79100246 23.15851296 131.51951939 23.14648438 134.24804688 C23.11393902 140.83224048 23.06244833 147.41602493 23 154 C16.4 154 9.8 154 3 154 C2.98541748 152.37916504 2.97083496 150.75833008 2.95581055 149.08837891 C2.90326082 143.61220118 2.837766 138.13627006 2.76428509 132.66033363 C2.72035911 129.35411364 2.68245859 126.04810354 2.65356445 122.74169922 C2.39639196 94.05875816 -0.45088693 66.59610892 -7.9309082 38.88989258 C-11.42262232 25.93898996 -11.42262232 25.93898996 -9.92578125 22.61328125 C-9.39339844 21.85402344 -8.86101562 21.09476563 -8.3125 20.3125 C-4.21427857 14.0126759 -1.71535852 7.30301153 0 0 Z " fill="#FCC85B" transform="translate(187,158)"/>
<path d="M0 0 C6.04399776 1.89954215 9.49058235 5.75979187 12.8125 11 C18.07657352 22.19660081 16.1107149 37.28574337 12.19726562 48.65673828 C7.52034986 61.03134485 -0.18953019 71.69001261 -12 78 C-14.35171277 78.89753441 -16.52894757 79.47424416 -19 80 C-20.65 77.69 -22.3 75.38 -24 73 C-25.98 73.99 -25.98 73.99 -28 75 C-31.465 71.535 -31.465 71.535 -35 68 C-33 64 -33 64 -30 61.6875 C-25.75262109 57.65661371 -25.90538282 52.41190243 -25.421875 46.8515625 C-25 43 -25 43 -23 35 C-27.29 39.29 -31.58 43.58 -36 48 C-41.46875 43.703125 -41.46875 43.703125 -43 42 C-43 37.65989774 -42.95602858 37.45410294 -40.1418457 34.60839844 C-39.5173201 33.9680365 -38.89279449 33.32767456 -38.24934387 32.66790771 C-37.56506821 31.98859192 -36.88079254 31.30927612 -36.17578125 30.609375 C-35.47736618 29.90476135 -34.77895111 29.20014771 -34.05937195 28.47418213 C-32.57886149 26.98656509 -31.09317942 25.50407987 -29.6027832 24.02636719 C-27.32298263 21.76041894 -25.06815787 19.47155724 -22.81445312 17.1796875 C-21.37384778 15.73813089 -19.93183586 14.29797825 -18.48828125 12.859375 C-17.81412674 12.17196228 -17.13997223 11.48454956 -16.44538879 10.77630615 C-15.80510239 10.14855286 -15.16481598 9.52079956 -14.50512695 8.87402344 C-13.94775345 8.31761169 -13.39037994 7.76119995 -12.81611633 7.18792725 C-10.44479566 5.63683914 -8.78195245 5.88656457 -6 6 C-4.14187758 4.74171505 -4.14187758 4.74171505 -2.6875 3 C-2.17574219 2.443125 -1.66398437 1.88625 -1.13671875 1.3125 C-0.76160156 0.879375 -0.38648438 0.44625 0 0 Z " fill="#E06215" transform="translate(135,115)"/>
<path d="M0 0 C1.41263387 1.18864868 2.80955318 2.39630854 4.1875 3.625 C5.10982422 4.40810547 5.10982422 4.40810547 6.05078125 5.20703125 C16.11495557 14.37859588 20.54500228 26.48501828 22.1875 39.625 C15.2575 39.625 8.3275 39.625 1.1875 39.625 C0.1975 35.665 0.1975 35.665 -0.8125 31.625 C-5.21395415 22.00448411 -11.91461978 15.40948361 -21.8125 11.625 C-32.68542515 8.92029225 -42.43374228 10.28222488 -51.99609375 15.91015625 C-57.33749776 19.53504101 -60.63616224 24.06135106 -63.8125 29.625 C-64.17601563 30.25148438 -64.53953125 30.87796875 -64.9140625 31.5234375 C-66.14839252 34.18143892 -66.14839252 34.18143892 -66.8125 39.625 C-73.7425 39.625 -80.6725 39.625 -87.8125 39.625 C-85.96785339 22.81821974 -78.3376938 10.54730412 -65.4375 -0.1875 C-46.41310736 -14.24036147 -18.99766096 -14.37748151 0 0 Z " fill="#FCC85C" transform="translate(127.8125,272.375)"/>
<path d="M0 0 C6.6 0 13.2 0 20 0 C20.23074219 1.43730469 20.46148437 2.87460937 20.69921875 4.35546875 C23.72968182 22.5350855 27.59025061 38.72690374 42.36328125 51.1171875 C57.18733793 61.70266205 73.3772484 63.35182899 91 65 C91 71.6 91 78.2 91 85 C66.71236383 85.5337942 43.28068414 79.78276855 25 63 C10.12215528 48.74413876 1.55072011 28.48020009 0 8 C0 5.36 0 2.72 0 0 Z " fill="#FCC85C" transform="translate(220,50)"/>
<path d="M0 0 C-3.26511398 16.15372179 -10.2659912 29.30917968 -24.125 38.8125 C-36.6267354 46.15815244 -50.46640614 50.21563196 -65 50 C-65 37.78410063 -57.77501005 25.65009587 -49.40625 17.109375 C-36.02120779 5.3757341 -17.79013419 -1.1067595 0 0 Z " fill="#399148" transform="translate(400,262)"/>
<path d="M0 0 C7.15249118 -0.53755675 12.91420206 -0.03085318 19 4 C25.0509928 9.41651977 28.95593363 15.51879294 29.46875 23.71484375 C29.50300617 25.45542327 29.51242911 27.19662779 29.5 28.9375 C29.49500488 29.85829346 29.49000977 30.77908691 29.48486328 31.7277832 C29.08617362 47.60250552 22.98197783 61.29872131 12.2109375 72.95703125 C6.06726334 78.63395985 -1.43461043 82.85272937 -9.875 83.125 C-10.90625 83.08375 -11.9375 83.0425 -13 83 C-12.14700232 81.85329616 -11.29250133 80.70771066 -10.4375 79.5625 C-9.88964844 78.82515625 -9.34179688 78.0878125 -8.77734375 77.328125 C-7.63618826 75.83333671 -6.46367882 74.36169381 -5.25390625 72.921875 C7.44618902 57.64781833 10.30551603 39.88992355 9.26757812 20.60595703 C8.70865039 15.16253128 6.8490793 10.67313573 4 6 C3.59652344 5.32582031 3.19304687 4.65164062 2.77734375 3.95703125 C1.91017082 2.59877114 0.96688644 1.28918192 0 0 Z " fill="#DF6215" transform="translate(150,113)"/>
<path d="M0 0 C6.6 0 13.2 0 20 0 C20.33 21.45 20.66 42.9 21 65 C18.69 63.02 16.38 61.04 14 59 C11.36652 57.54697959 11.36652 57.54697959 8.8125 56.6875 C7.99394531 56.38199219 7.17539063 56.07648438 6.33203125 55.76171875 C4.24946371 55.08148312 2.12543323 54.53135831 0 54 C0 36.18 0 18.36 0 0 Z " fill="#FDC95C" transform="translate(160,50)"/>
<path d="M0 0 C11.30807676 7.22636928 18.10905569 18.24634922 22 31 C22.04352053 32.99952643 22.05075938 35.00064423 22 37 C1.57683617 36.67722011 -15.20690309 30.44011629 -30 16 C-26.85371448 13.90247632 -24.22184033 13.06504882 -20.625 11.9375 C-12.75268644 9.21499156 -6.58517814 5.02092486 0 0 Z " fill="#399047" transform="translate(301,275)"/>
<path d="M0 0 C6.71029541 3.42704373 10.94879177 7.46138644 14.1875 14.3125 C14.1875 15.6325 14.1875 16.9525 14.1875 18.3125 C-1.6525 18.3125 -17.4925 18.3125 -33.8125 18.3125 C-32.63710172 11.26011029 -30.44540829 7.09544484 -24.7421875 2.7265625 C-17.00280413 -2.21407707 -8.703523 -3.66464126 0 0 Z " fill="#FCC85C" transform="translate(104.8125,293.6875)"/>
<path d="M0 0 C0 13.86 0 27.72 0 42 C-11.76668902 42 -20.66959083 38.01588907 -30 31 C-28.34632885 26.72113402 -25.13020426 23.8599365 -21.93359375 20.703125 C-21.33950211 20.10949158 -20.74541046 19.51585815 -20.13331604 18.90423584 C-18.88071283 17.65464684 -17.62568693 16.40748226 -16.3684082 15.16259766 C-14.43574928 13.24826588 -12.51128287 11.32598142 -10.58789062 9.40234375 C-9.37026394 8.1896298 -8.15218082 6.97737392 -6.93359375 5.765625 C-6.3544371 5.18758118 -5.77528046 4.60953735 -5.17857361 4.01397705 C-1.11606324 0 -1.11606324 0 0 0 Z " fill="#FBC85B" transform="translate(253,239)"/>
<path d="M0 0 C5.47151723 1.82383908 7.46519459 8.08619282 10 13 C12.75966668 19.19242279 13 22.86944878 13 30 C-0.86 30 -14.72 30 -29 30 C-25.1819498 25.5456081 -21.51309612 21.39223603 -17.3828125 17.28515625 C-16.88079315 16.78455185 -16.3787738 16.28394745 -15.86154175 15.76817322 C-14.28506329 14.19721402 -12.70511427 12.62980123 -11.125 11.0625 C-10.04403726 9.98656273 -8.96330617 8.91039269 -7.8828125 7.83398438 C-5.25787359 5.21996708 -2.62981372 2.60911404 0 0 Z " fill="#FBC85B" transform="translate(299,192)"/>
<path d="M0 0 C4.37716368 3.75185458 8.46312247 7.34160249 12.49609375 11.3984375 C12.97450211 11.8782608 13.45291046 12.35808411 13.94581604 12.85244751 C15.44544879 14.35759458 16.94153128 15.86621214 18.4375 17.375 C19.46525983 18.40778595 20.49325285 19.44033991 21.52148438 20.47265625 C24.01701598 22.97910287 26.50938082 25.4886708 29 28 C27.12569142 32.36245888 24.41261723 33.68129857 20.25 35.625 C19.6415625 35.9240625 19.033125 36.223125 18.40625 36.53125 C11.77062792 39.7356316 7.50424555 41 0 41 C0 27.47 0 13.94 0 0 Z " fill="#FECA5C" transform="translate(263,240)"/>
<path d="M0 0 C13.53 0 27.06 0 41 0 C41 11.20620788 36.66915749 20.13070807 30 29 C25.81582597 27.36126156 23.01602195 24.28705654 19.921875 21.15234375 C19.35043762 20.58044815 18.77900024 20.00855255 18.19024658 19.41932678 C16.98773552 18.21380214 15.78764828 17.00585546 14.58984375 15.7956543 C12.74794101 13.93542052 10.89808634 12.08338783 9.046875 10.23242188 C7.87973386 9.06036812 6.71305087 7.88785793 5.546875 6.71484375 C4.99070496 6.15756088 4.43453491 5.60027802 3.86151123 5.02610779 C0 1.11606528 0 1.11606528 0 0 Z " fill="#FECA5C" transform="translate(271,232)"/>
<path d="M0 0 C8 3.875 8 3.875 10.46875 5.08544922 C11.1390625 5.40529785 11.809375 5.72514648 12.5 6.0546875 C13.50546875 6.54171143 13.50546875 6.54171143 14.53125 7.03857422 C17.91055523 8.35460507 21.48175966 9.12043992 25 10 C25 17.26 25 24.52 25 32 C16.75 32 8.5 32 0 32 C0 21.44 0 10.88 0 0 Z " fill="#FECA5C" transform="translate(220,280)"/>
<path d="M0 0 C3.7952131 1.49097658 5.61042731 3.75700849 8 7 C-5 20 -18 33 -31 46 C-33.31 43.69 -35.62 41.38 -38 39 C-36.27891919 35.55783838 -35.43670205 34.21824508 -32.75390625 31.77734375 C-32.0899585 31.16503906 -31.42601074 30.55273438 -30.74194336 29.921875 C-30.02272705 29.26703125 -29.30351074 28.6121875 -28.5625 27.9375 C-18.77416873 18.8893374 -9.37364528 9.47453731 0 0 Z " fill="#4F2519" transform="translate(138,144)"/>
<path d="M0 0 C2.85151526 1.23113104 4.14996137 3.35522836 5.9286499 5.83268738 C4.57633803 8.86246167 3.07384447 10.91741351 0.69818115 13.22331238 C0.063479 13.84641296 -0.57122314 14.46951355 -1.22515869 15.11149597 C-1.89627686 15.76198914 -2.56739502 16.4124823 -3.2588501 17.08268738 C-7.83549106 21.58170334 -12.3015148 26.07255625 -16.44244385 30.98112488 C-19.78815564 34.78416418 -23.45451886 38.28966903 -27.0713501 41.83268738 C-28.24960368 40.9309627 -29.41366587 40.01067235 -30.5713501 39.08268738 C-31.54588135 38.31698425 -31.54588135 38.31698425 -32.5401001 37.53581238 C-34.0713501 35.83268738 -34.0713501 35.83268738 -34.0713501 31.83268738 C-32.88342285 30.13009644 -32.88342285 30.13009644 -31.19732666 28.42521667 C-30.56957336 27.78162704 -29.94182007 27.13803741 -29.29504395 26.47494507 C-28.60763123 25.79249222 -27.92021851 25.11003937 -27.2119751 24.40690613 C-26.16079498 23.34642815 -26.16079498 23.34642815 -25.08837891 22.26452637 C-23.60367182 20.7727136 -22.11379486 19.28603103 -20.61920166 17.80412292 C-18.32840762 15.52720215 -16.06261421 13.22732459 -13.7979126 10.92448425 C-12.35405193 9.47967254 -10.90878552 8.03626399 -9.4619751 6.59440613 C-8.7826593 5.90183212 -8.10334351 5.20925812 -7.40344238 4.49569702 C-6.44289948 3.55395378 -6.44289948 3.55395378 -5.46295166 2.59318542 C-4.62356049 1.75523689 -4.62356049 1.75523689 -3.76721191 0.90036011 C-2.0713501 -0.16731262 -2.0713501 -0.16731262 0 0 Z " fill="#4D2419" transform="translate(126.07135009765625,121.16731262207031)"/>
<path d="M0 0 C6.6 0 13.2 0 20 0 C20 3.63 20 7.26 20 11 C13.4 10.67 6.8 10.34 0 10 C0 6.7 0 3.4 0 0 Z " fill="#E26315" transform="translate(100,50)"/>
</svg>
